<svg xmlns="http://www.w3.org/2000/svg" viewBox="0 0 100 100">
  <defs>
    <linearGradient id="grad" x1="0%" y1="0%" x2="100%" y2="100%">
      <stop offset="0%" style="stop-color:#e8b4b8;stop-opacity:1" />
      <stop offset="100%" style="stop-color:#d4878f;stop-opacity:1" />
    </linearGradient>
  </defs>
  <!-- Background circle -->
  <circle cx="50" cy="50" r="48" fill="url(#grad)"/>
  <!-- Double heart intertwined -->
  <path d="M35 38 C35 32, 38 28, 42 28 C45 28, 47 30, 48 33 C49 30, 51 28, 54 28 C58 28, 61 32, 61 38 C61 45, 48 55, 48 55 C48 55, 35 45, 35 38 Z" fill="#fff" opacity="0.95"/>
  <path d="M39 48 C39 42, 42 38, 46 38 C49 38, 51 40, 52 43 C53 40, 55 38, 58 38 C62 38, 65 42, 65 48 C65 55, 52 65, 52 65 C52 65, 39 55, 39 48 Z" fill="#fff" opacity="0.85"/>
  <!-- Initials B & C -->
  <text x="50" y="58" font-family="Georgia, serif" font-size="28" font-weight="600" fill="#8a4f57" text-anchor="middle" letter-spacing="-1">B&amp;C</text>
</svg>
